<?xml version="1.0" encoding="utf-8"?>
<!-- Generator: Adobe Illustrator 26.4.1, SVG Export Plug-In . SVG Version: 6.00 Build 0)  -->
<svg version="1.1" id="katman_1" xmlns="http://www.w3.org/2000/svg" xmlns:xlink="http://www.w3.org/1999/xlink" x="0px" y="0px"
	 viewBox="0 0 1000 1000" style="enable-background:new 0 0 1000 1000;" xml:space="preserve">
<style type="text/css">
	.st0{clip-path:url(#SVGID_00000031173922259948117270000009493038034937225347_);}
	.st1{fill:#AB9FF2;}
	.st2{fill-rule:evenodd;clip-rule:evenodd;fill:#FFFDF8;}
</style>
<g>
	<defs>
		<path id="SVGID_1_" d="M500,117.6L500,117.6c211.2,0,382.4,171.2,382.4,382.4l0,0c0,211.2-171.2,382.4-382.4,382.4l0,0
			c-211.2,0-382.4-171.2-382.4-382.4l0,0C117.6,288.8,288.8,117.6,500,117.6z"/>
	</defs>
	<clipPath id="SVGID_00000031204073123243218530000000457753281185364364_">
		<use xlink:href="#SVGID_1_"  style="overflow:visible;"/>
	</clipPath>
	<g style="clip-path:url(#SVGID_00000031204073123243218530000000457753281185364364_);">
		<rect x="117.6" y="117.6" class="st1" width="764.7" height="764.7"/>
		<path class="st2" d="M450.4,605c-30,46-80.3,104.2-147.3,104.2c-31.7,0-62.1-13-62.1-69.6c0-144.1,196.8-367.3,379.4-367.3
			c103.9,0,145.3,72.1,145.3,153.9c0,105.1-68.2,225.2-135.9,225.2c-21.5,0-32.1-11.8-32.1-30.5c0-4.9,0.8-10.2,2.4-15.9
			c-23.1,39.5-67.8,76.1-109.6,76.1c-30.4,0-45.9-19.1-45.9-46C444.7,625.4,446.8,615.2,450.4,605z M607.7,423.4
			c0,23.8-14.1,35.8-29.8,35.8c-16,0-29.8-11.9-29.8-35.8c0-23.8,13.8-35.8,29.8-35.8C593.7,387.7,607.7,399.6,607.7,423.4z
			 M697.2,423.4c0,23.8-14.1,35.8-29.8,35.8c-16,0-29.8-11.9-29.8-35.8s13.8-35.8,29.8-35.8C683.1,387.7,697.2,399.6,697.2,423.4z"
			/>
	</g>
</g>
</svg>
