<?xml version="1.0" encoding="utf-8"?>
<!-- Generator: Adobe Illustrator 26.4.1, SVG Export Plug-In . SVG Version: 6.00 Build 0)  -->
<svg version="1.1" id="Layer_1" xmlns="http://www.w3.org/2000/svg" xmlns:xlink="http://www.w3.org/1999/xlink" x="0px" y="0px"
	 viewBox="0 0 318.6 318.6" style="enable-background:new 0 0 318.6 318.6;" xml:space="preserve">
<style type="text/css">
	.st0{fill:url(#SVGID_1_);}
	.st1{fill:url(#SVGID_00000129177478173015537670000016040777543506244226_);}
	.st2{fill:url(#SVGID_00000110468276364058526360000008557374997379524275_);}
	.st3{fill:url(#SVGID_00000158007461017297724250000004260453955967443099_);}
	.st4{fill:url(#SVGID_00000029033325944252473260000015540265442090677172_);}
	.st5{fill:url(#SVGID_00000072959891353162593980000011138009301602338692_);}
</style>
<g>
	
		<linearGradient id="SVGID_1_" gradientUnits="userSpaceOnUse" x1="229.6991" y1="252.2868" x2="98.3423" y2="462.9889" gradientTransform="matrix(1 0 0 1 0 -200)">
		<stop  offset="0.16" style="stop-color:#C6F462"/>
		<stop  offset="0.89" style="stop-color:#33D9FF"/>
	</linearGradient>
	<path class="st0" d="M214,227.3c-26.9-43.7-67-68.4-116.5-78.7c-17.5-3.6-35.1-3.6-52.1,3.1c-11.6,4.6-13.4,9.4-7.9,21.6
		c37.2-8.8,71.8-0.6,104.2,18.1c32.6,18.9,57,45.2,68.1,82.5c15.5-4.7,17.5-7.4,13.8-21.8C221.4,243.6,218.6,234.7,214,227.3
		L214,227.3z"/>
	
		<linearGradient id="SVGID_00000153682529974012639410000008818296315291195533_" gradientUnits="userSpaceOnUse" x1="228.7888" y1="251.7188" x2="97.436" y2="462.4209" gradientTransform="matrix(1 0 0 1 0 -200)">
		<stop  offset="0.16" style="stop-color:#C6F462"/>
		<stop  offset="0.89" style="stop-color:#33D9FF"/>
	</linearGradient>
	<path style="fill:url(#SVGID_00000153682529974012639410000008818296315291195533_);" d="M243.5,191.7
		c-34.5-50.3-83.4-78.4-143.2-87.9c-15.8-2.5-32-1.8-46.8,5.8c-7.1,3.6-13.4,8.3-15.1,18.1c46.6-12.8,88.4-1.5,127.8,21.3
		c39.6,22.9,70.5,53.7,82.5,101.1c8.4-7.4,9.9-16.5,7.7-25C253.4,213.5,250.1,201.3,243.5,191.7L243.5,191.7z"/>
	
		<linearGradient id="SVGID_00000086666432927881674290000018146732166654920883_" gradientUnits="userSpaceOnUse" x1="230.5609" y1="252.8254" x2="99.2082" y2="463.5275" gradientTransform="matrix(1 0 0 1 0 -200)">
		<stop  offset="0.16" style="stop-color:#C6F462"/>
		<stop  offset="0.89" style="stop-color:#33D9FF"/>
	</linearGradient>
	<path style="fill:url(#SVGID_00000086666432927881674290000018146732166654920883_);" d="M40.6,195c2.9,6.5,4.9,13.9,9.3,19.2
		c2.2,2.7,8.9,1.6,13.6,2.3c0.7,0.1,1.4,0.2,2.2,0.3c41.4,6.2,74.1,26.2,97.4,61.2c1.4,2.1,3.6,5.1,5.4,5.1c7,0,14-1.1,21.1-1.8
		C179,222.7,92,174.7,40.6,195L40.6,195z"/>
	
		<linearGradient id="SVGID_00000018950576420988462130000013496785142185815979_" gradientUnits="userSpaceOnUse" x1="227.3685" y1="250.8331" x2="96.0117" y2="461.5352" gradientTransform="matrix(1 0 0 1 0 -200)">
		<stop  offset="0.16" style="stop-color:#C6F462"/>
		<stop  offset="0.89" style="stop-color:#33D9FF"/>
	</linearGradient>
	<path style="fill:url(#SVGID_00000018950576420988462130000013496785142185815979_);" d="M262.6,145.9
		c-22.8-31.9-54.3-53.2-90-68.3C147.8,67.1,122.2,60.8,95,64c-9.4,1.1-18.2,3.8-25.5,9.9c92.9,2.3,162.8,42.6,210.9,122.1
		c0.1-5.3,0.9-11.1-1-15.9C274.5,168.3,269.9,156.1,262.6,145.9z"/>
	
		<linearGradient id="SVGID_00000173847395007272939440000011449451383203499708_" gradientUnits="userSpaceOnUse" x1="228.3954" y1="251.4715" x2="97.0387" y2="462.1736" gradientTransform="matrix(1 0 0 1 0 -200)">
		<stop  offset="0.16" style="stop-color:#C6F462"/>
		<stop  offset="0.89" style="stop-color:#33D9FF"/>
	</linearGradient>
	<path style="fill:url(#SVGID_00000173847395007272939440000011449451383203499708_);" d="M284,129.2
		c-18.9-72-95.8-106.6-152.6-89.1C192.6,52.2,242.8,81.4,284,129.2z"/>
	
		<linearGradient id="SVGID_00000016788848885649540050000009106862510705259676_" gradientUnits="userSpaceOnUse" x1="231.3505" y1="253.3154" x2="99.9977" y2="464.0175" gradientTransform="matrix(1 0 0 1 0 -200)">
		<stop  offset="0.16" style="stop-color:#C6F462"/>
		<stop  offset="0.89" style="stop-color:#33D9FF"/>
	</linearGradient>
	<path style="fill:url(#SVGID_00000016788848885649540050000009106862510705259676_);" d="M60.9,233.3c22,27.9,49.9,44.1,85.7,49.4
		C132.9,257.2,84.7,229.5,60.9,233.3L60.9,233.3z"/>
</g>
</svg>
