<?xml version="1.0" encoding="utf-8"?>
<!-- Generator: Adobe Illustrator 26.4.1, SVG Export Plug-In . SVG Version: 6.00 Build 0)  -->
<svg version="1.1" id="Layer_1" xmlns="http://www.w3.org/2000/svg" xmlns:xlink="http://www.w3.org/1999/xlink" x="0px" y="0px"
	 viewBox="0 0 2496 2496" style="enable-background:new 0 0 2496 2496;" xml:space="preserve">
<style type="text/css">
	.st0{fill:url(#SVGID_1_);}
	.st1{fill:url(#SVGID_00000023277560558383442460000000626727190877646747_);}
	.st2{fill:url(#SVGID_00000008857582370540207620000007464057569193696177_);}
</style>
<g>
	
		<linearGradient id="SVGID_1_" gradientUnits="userSpaceOnUse" x1="2256.2197" y1="731.1847" x2="889.3712" y2="3349.249" gradientTransform="matrix(1 0 0 1 0 -686)">
		<stop  offset="0" style="stop-color:#00FFA3"/>
		<stop  offset="1" style="stop-color:#DC1FFF"/>
	</linearGradient>
	<path class="st0" d="M412.6,1758.5c14.9-14.9,35.5-23.6,57.2-23.6h1975c36.1,0,54.1,43.6,28.6,69.1l-390.1,390.1
		c-14.9,14.9-35.5,23.6-57.2,23.6H51.1c-36.1,0-54.1-43.6-28.6-69.1L412.6,1758.5z"/>
	
		<linearGradient id="SVGID_00000160893864186344110170000013330738008873414064_" gradientUnits="userSpaceOnUse" x1="1658.6113" y1="419.1832" x2="291.7628" y2="3037.2478" gradientTransform="matrix(1 0 0 1 0 -686)">
		<stop  offset="0" style="stop-color:#00FFA3"/>
		<stop  offset="1" style="stop-color:#DC1FFF"/>
	</linearGradient>
	<path style="fill:url(#SVGID_00000160893864186344110170000013330738008873414064_);" d="M412.6,301.9
		c15.6-14.9,36.1-23.6,57.2-23.6h1975c36.1,0,54.1,43.6,28.6,69.1l-390.1,390.1c-14.9,14.9-35.5,23.6-57.2,23.6H51.1
		C15,761.1-3,717.5,22.5,692L412.6,301.9z"/>
	
		<linearGradient id="SVGID_00000031888017164205514860000003902217879647486620_" gradientUnits="userSpaceOnUse" x1="1955.5011" y1="574.1843" x2="588.652" y2="3192.2493" gradientTransform="matrix(1 0 0 1 0 -686)">
		<stop  offset="0" style="stop-color:#00FFA3"/>
		<stop  offset="1" style="stop-color:#DC1FFF"/>
	</linearGradient>
	<path style="fill:url(#SVGID_00000031888017164205514860000003902217879647486620_);" d="M2083.4,1025.5
		c-14.9-14.9-35.5-23.6-57.2-23.6H51.1c-36.1,0-54.1,43.6-28.6,69.1l390.1,390.1c14.9,14.9,35.5,23.6,57.2,23.6h1975
		c36.1,0,54.1-43.6,28.6-69.1L2083.4,1025.5z"/>
</g>
</svg>
