<?xml version="1.0" encoding="utf-8"?>
<!-- Generator: Adobe Illustrator 26.4.1, SVG Export Plug-In . SVG Version: 6.00 Build 0)  -->
<svg version="1.1" id="Ebene_1" xmlns="http://www.w3.org/2000/svg" xmlns:xlink="http://www.w3.org/1999/xlink" x="0px" y="0px"
	 viewBox="0 0 2500 753" style="enable-background:new 0 0 2500 753;" xml:space="preserve">
<style type="text/css">
	.st0{fill:#FFFFFF;}
	.st1{fill:#8DC63F;}
	.st2{fill:#F9E988;}
	.st3{fill:#8BC53F;}
	.st4{fill:#009345;}
	.st5{fill:#58595B;}
	.st6{fill:none;}
</style>
<path class="st0" d="M1046.1,309.6c-6.4-24.9-22.5-43.2-54.1-43.2c-46.6,0-66,41.1-66,82.7s19.5,82.7,66,82.7
	c33.8,0,52.4-25.2,55.3-56.9h37.1c-3,52-39.8,87.9-92.5,87.9c-65.1,0-104-51.7-104-113.8s38.9-113.7,104-113.7
	c49,0.3,87.6,27.4,92.1,74.2L1046.1,309.6z M1106.9,378.9c0-48,28.9-82.7,79.4-82.7c50.5,0,79.4,34.7,79.4,82.7s-28.9,83-79.4,83
	S1106.9,427.3,1106.9,378.9z M1231,378.9c0-27.1-13.7-55.3-44.7-55.3s-44.7,28.3-44.7,55.3c0,27.1,13.7,55.7,44.7,55.7
	S1231,406.3,1231,378.9z M1295.5,240.6h34.7v32.8h-34.7V240.6z M1295.5,300.5h34.7v157.3h-34.7V300.5z M1368,300.5h32.8v23.1
	l0.6,0.6c10.1-17.4,28.8-28.1,49-28c34.1,0,55.7,18.3,55.7,53.5v108.1h-34.6v-99c-0.6-24.6-10.4-35.3-30.7-35.3
	c-23.1,0-38,18.3-38,41.4v92.8H1368V300.5z M1736.9,457.7h-24.3l-5.8-25.5c-20.4,23.1-39,30.7-65.5,30.7c-65.1,0-104-51.7-104-113.8
	s38.9-113.7,104-113.7c47.4,0,87.3,25.2,93.1,74.2h-37c-3.7-28.6-28.6-43.2-56-43.2c-46.5,0-66,41.1-66,82.7s19.5,82.7,66,82.7
	c38.9,0.6,60.2-22.9,60.8-59.6h-57.8v-28.9h92.5V457.7z M1800.5,388.1c0,24.6,13.4,46.5,42.3,46.5c20.1,0,32.2-8.8,38.3-26.2h32.8
	c-7.6,34.4-36.8,53.5-71.2,53.5c-49.2,0-76.9-34.4-76.9-82.7c0-44.7,29.2-83,76-83c49.6,0,80,44.7,74.2,91.8L1800.5,388.1z
	 M1881.4,365.1c-1.2-21.9-16.1-41.6-39.6-41.6c-24,0-40.4,18.3-41.4,41.6H1881.4z M2048.7,353.1c-2.8-19.2-16.7-29.5-36-29.5
	c-17.9,0-43.2,9.4-43.2,57.2c0,26.2,11.6,53.8,41.7,53.8c20.1,0,34.1-13.4,37.4-35.9h34.7c-6.6,40.7-31.6,63.2-72.1,63.2
	c-49.2,0-76.4-35-76.4-81.2c0-47.4,25.9-84.6,77.6-84.6c36.5,0,67.5,18.3,70.9,56.9L2048.7,353.1z M2112.6,240.6h34.7V364l62.8-63.6
	h42.6l-60.2,57.8l66,99.5H2216l-48-76.4l-20.7,20.1v56.3h-34.7V240.6z M2267.8,378.9c0-48,28.9-82.7,79.4-82.7
	c50.5,0,79.3,34.7,79.3,82.7s-28.9,83-79.4,83S2267.8,427.3,2267.8,378.9z M2391.9,378.9c0-27.1-13.7-55.3-44.7-55.3
	s-44.7,28.3-44.7,55.3c0,27.1,13.7,55.7,44.7,55.7S2391.9,406.3,2391.9,378.9z"/>
<path class="st1" d="M695.5,375.1c0.8,171.8-137.9,311.6-309.6,312.4S74.2,549.6,73.4,377.9C72.7,206.1,211.3,66.3,383,65.5
	C554.8,64.7,694.7,203.3,695.5,375.1z"/>
<path class="st2" d="M672,375.2c0.7,158.8-127.4,288.2-286.3,288.9S97.6,536.6,96.9,377.8C96.2,219,224.3,89.6,383.1,88.9
	C542,88.2,671.3,216.3,672,375.2C672,375.2,672,375.2,672,375.2z"/>
<path class="st0" d="M389.7,107.5c18.3-3.3,37-3.3,55.3,0c18.5,2.9,36.3,8.9,52.8,17.7c16.4,9,30.6,21.2,44.7,32.8
	c14.1,11.5,28.1,23.2,41.5,36c13.6,12.6,25.5,27,35.4,42.8c10.2,15.6,18.5,32.4,24.8,50c12.3,35.1,15.8,72.6,10.2,109.4h-1.8
	c-5.4-35.1-14.4-69.5-26.9-102.8c-6-16.4-13.1-32.5-21.1-48c-8.5-15.5-17.8-30.5-28-44.9c-10.4-14.6-23-27.4-37.6-37.9
	c-14.6-10.4-31.4-17.1-47.6-23.5c-16.3-6.4-32.5-12.7-49.4-17.6c-16.9-4.9-34.1-8.5-52.1-12.1L389.7,107.5z"/>
<path class="st3" d="M530.3,273.6c-20.9-6.1-42.6-14.6-64.4-23.3c-1.2-5.5-6.1-12.4-16-20.7c-14.3-12.4-41.2-12.1-64.4-6.6
	c-25.6-6-51-8.2-75.4-2.3c-198.7,54.7-86,188.5-159,322.9c10.4,22,122.4,150.7,284.4,116.1c0,0-55.4-133.1,69.6-197
	C606.5,410.7,679.8,314.4,530.3,273.6L530.3,273.6z"/>
<path class="st0" d="M554.8,361.1c0.1,6.7-5.3,12.1-12,12.2c-6.7,0.1-12.1-5.3-12.2-12s5.3-12.1,12-12.2c0,0,0,0,0.1,0
	C549.4,349.1,554.8,354.5,554.8,361.1C554.8,361.1,554.8,361.1,554.8,361.1z"/>
<path class="st4" d="M385.5,223c14.5,1,66.9,18.2,80.4,27.3C454.7,217.6,416.7,213.3,385.5,223z"/>
<path class="st0" d="M399.3,305.6c0,30.8-24.9,55.7-55.7,55.7s-55.7-24.9-55.7-55.7s24.9-55.7,55.7-55.7S399.3,274.9,399.3,305.6z"
	/>
<path class="st5" d="M382.8,306.1c0,21.6-17.5,39.1-39.1,39.2c-21.6,0-39.1-17.5-39.2-39.1c0-21.6,17.5-39.1,39.1-39.2c0,0,0,0,0,0
	C365.2,267.1,382.7,284.5,382.8,306.1z"/>
<path class="st3" d="M599.9,385.6c-45.1,31.8-96.3,55.7-169,55.7c-34,0-40.9-36-63.4-18.4c-11.6,9.1-52.4,29.5-85,28.1
	c-32.6-1.4-85.2-20.6-99.8-89.9c-5.8,69.3-8.8,120.4-34.8,178.9c51.8,83,175.4,147,287.5,119.5c-12-84.2,61.5-166.6,103-208.8
	c15.7-16,45.9-42,61.5-65.1L599.9,385.6z"/>
<path class="st5" d="M598.1,387.7c-14.4,12.3-30.4,22.6-47.6,30.5c-17.2,8.2-35,14.7-53.4,19.5c-18.4,4.8-37.6,8.3-57,6.6
	c-19.4-1.8-39.3-8.4-52.1-22.9l0.6-0.7c15.9,10.3,34,13.9,52.1,14.4c18.4,0.5,36.7-1,54.8-4.6c18.2-3.8,36-9.3,53.2-16.4
	c17.5-6.7,33.9-15.8,48.9-27L598.1,387.7z"/>
<path class="st6" d="M0.2,0h2499.5v753H0.2V0z"/>
</svg>
