<svg
  xmlns="http://www.w3.org/2000/svg"
  version="1.1"
  xmlns:xlink="http://www.w3.org/1999/xlink"
  width="512"
  height="512"
  x="0"
  y="0"
  viewBox="0 0 24 24"
  style="enable-background:new 0 0 512 512"
  xml:space="preserve"
  class=""
><g><linearGradient
      id="a"
      x1="12"
      x2="12"
      y1="-108"
      y2="-128"
      gradientTransform="matrix(1 0 0 -1 0 -106)"
      gradientUnits="userSpaceOnUse"
    ><stop stop-opacity="1" stop-color="#a558ad" offset="0" /><stop
        stop-opacity="1"
        stop-color="#b805ff"
        offset="1"
      /></linearGradient><circle
      cx="12"
      cy="12"
      r="10"
      fill="url(#a)"
      opacity="1"
      data-original="url(#a)"
      class=""
    /><g fill="#fff"><path
        d="M13.043 12.52a.52.52 0 1 0-.001-1.04.52.52 0 0 0 0 1.04z"
        fill="#ffffff"
        opacity="1"
        data-original="#ffffff"
        class=""
      /><path
        d="M17.207 12a2.08 2.08 0 0 0-1.562-2.01v-.594a2.084 2.084 0 0 0-2.083-2.084H8.875c-1.15 0-2.082.935-2.082 2.084v5.208c0 1.15.932 2.084 2.082 2.084h4.688c1.15 0 2.082-.935 2.082-2.084v-.595A2.08 2.08 0 0 0 17.207 12zm-3.645 3.646H8.875a1.043 1.043 0 0 1-1.043-1.042V9.396c0-.575.468-1.042 1.043-1.042h4.688c.575 0 1.042.467 1.042 1.042v.52h-1.562c-1.15 0-2.086.935-2.086 2.084s.935 2.083 2.086 2.083h1.562v.521c0 .575-.467 1.042-1.043 1.042zm1.563-2.604h-2.082C12.467 13.042 12 12.574 12 12s.467-1.042 1.043-1.042h2.082c.575 0 1.043.468 1.043 1.042s-.468 1.042-1.043 1.042z"
        fill="#ffffff"
        opacity="1"
        data-original="#ffffff"
        class=""
      /></g></g></svg>
